solid ascii
  facet normal 7.071068e-001 -7.071068e-001 0.000000e+000
    outer loop
      vertex   2.368034e+001 6.069852e+000 2.500000e+000
      vertex   2.368034e+001 6.069852e+000 5.000000e+000
      vertex   2.191257e+001 4.302085e+000 2.500000e+000
    endloop
  endfacet
  facet normal 7.071068e-001 -7.071068e-001 0.000000e+000
    outer loop
      vertex   2.191257e+001 4.302085e+000 2.500000e+000
      vertex   2.368034e+001 6.069852e+000 5.000000e+000
      vertex   2.191257e+001 4.302085e+000 5.000000e+000
    endloop
  endfacet
  facet normal -7.071068e-001 -7.071068e-001 0.000000e+000
    outer loop
      vertex   3.075141e+001 -1.001215e+000 2.500000e+000
      vertex   3.075141e+001 -1.001215e+000 5.000000e+000
      vertex   2.368034e+001 6.069852e+000 2.500000e+000
    endloop
  endfacet
  facet normal -7.071068e-001 -7.071068e-001 0.000000e+000
    outer loop
      vertex   2.368034e+001 6.069852e+000 2.500000e+000
      vertex   3.075141e+001 -1.001215e+000 5.000000e+000
      vertex   2.368034e+001 6.069852e+000 5.000000e+000
    endloop
  endfacet
  facet normal -7.071068e-001 7.071068e-001 0.000000e+000
    outer loop
      vertex   2.898364e+001 -2.768982e+000 2.500000e+000
      vertex   2.898364e+001 -2.768982e+000 5.000000e+000
      vertex   3.075141e+001 -1.001215e+000 2.500000e+000
    endloop
  endfacet
  facet normal -7.071068e-001 7.071068e-001 0.000000e+000
    outer loop
      vertex   3.075141e+001 -1.001215e+000 2.500000e+000
      vertex   2.898364e+001 -2.768982e+000 5.000000e+000
      vertex   3.075141e+001 -1.001215e+000 5.000000e+000
    endloop
  endfacet
  facet normal 7.071068e-001 7.071068e-001 -0.000000e+000
    outer loop
      vertex   2.191257e+001 4.302085e+000 2.500000e+000
      vertex   2.191257e+001 4.302085e+000 5.000000e+000
      vertex   2.898364e+001 -2.768982e+000 2.500000e+000
    endloop
  endfacet
  facet normal 7.071068e-001 7.071068e-001 0.000000e+000
    outer loop
      vertex   2.898364e+001 -2.768982e+000 2.500000e+000
      vertex   2.191257e+001 4.302085e+000 5.000000e+000
      vertex   2.898364e+001 -2.768982e+000 5.000000e+000
    endloop
  endfacet
  facet normal 0.000000e+000 0.000000e+000 1.000000e+000
    outer loop
      vertex   2.368034e+001 6.069852e+000 2.500000e+000
      vertex   2.191257e+001 4.302085e+000 2.500000e+000
      vertex   3.075141e+001 -1.001215e+000 2.500000e+000
    endloop
  endfacet
  facet normal 0.000000e+000 0.000000e+000 1.000000e+000
    outer loop
      vertex   3.075141e+001 -1.001215e+000 2.500000e+000
      vertex   2.191257e+001 4.302085e+000 2.500000e+000
      vertex   2.898364e+001 -2.768982e+000 2.500000e+000
    endloop
  endfacet
  facet normal 7.071068e-001 7.071068e-001 -0.000000e+000
    outer loop
      vertex   2.261968e+001 8.544726e+000 0.000000e+000
      vertex   2.261968e+001 8.544726e+000 5.000000e+000
      vertex   3.676181e+001 -5.597410e+000 0.000000e+000
    endloop
  endfacet
  facet normal 7.071068e-001 7.071068e-001 0.000000e+000
    outer loop
      vertex   3.676181e+001 -5.597410e+000 0.000000e+000
      vertex   2.261968e+001 8.544726e+000 5.000000e+000
      vertex   3.676181e+001 -5.597410e+000 5.000000e+000
    endloop
  endfacet
  facet normal 7.320989e-001 -6.811984e-001 0.000000e+000
    outer loop
      vertex   2.261968e+001 8.544726e+000 5.000000e+000
      vertex   2.261968e+001 8.544726e+000 0.000000e+000
      vertex   2.662221e+001 1.284634e+001 5.000000e+000
    endloop
  endfacet
  facet normal 7.320989e-001 -6.811984e-001 0.000000e+000
    outer loop
      vertex   2.662221e+001 1.284634e+001 5.000000e+000
      vertex   2.261968e+001 8.544726e+000 0.000000e+000
      vertex   2.662221e+001 1.284634e+001 0.000000e+000
    endloop
  endfacet
  facet normal 0.000000e+000 0.000000e+000 -1.000000e+000
    outer loop
      vertex   3.676181e+001 -5.597410e+000 0.000000e+000
      vertex   4.000000e+000 0.000000e+000 0.000000e+000
      vertex   2.261968e+001 8.544726e+000 0.000000e+000
    endloop
  endfacet
  facet normal 0.000000e+000 0.000000e+000 -1.000000e+000
    outer loop
      vertex   3.676181e+001 -5.597410e+000 0.000000e+000
      vertex   -3.676181e+001 -5.597410e+000 0.000000e+000
      vertex   4.000000e+000 0.000000e+000 0.000000e+000
    endloop
  endfacet
  facet normal -0.000000e+000 0.000000e+000 -1.000000e+000
    outer loop
      vertex   4.000000e+000 0.000000e+000 0.000000e+000
      vertex   -3.676181e+001 -5.597410e+000 0.000000e+000
      vertex   -4.000000e+000 9.860761e-031 0.000000e+000
    endloop
  endfacet
  facet normal -0.000000e+000 0.000000e+000 -1.000000e+000
    outer loop
      vertex   -4.000000e+000 9.860761e-031 0.000000e+000
      vertex   -3.676181e+001 -5.597410e+000 0.000000e+000
      vertex   -2.261968e+001 8.544726e+000 0.000000e+000
    endloop
  endfacet
  facet normal -0.000000e+000 0.000000e+000 -1.000000e+000
    outer loop
      vertex   -1.600000e+001 8.770418e+000 0.000000e+000
      vertex   -2.261968e+001 8.544726e+000 0.000000e+000
      vertex   -2.662221e+001 1.284634e+001 0.000000e+000
    endloop
  endfacet
  facet normal -0.000000e+000 0.000000e+000 -1.000000e+000
    outer loop
      vertex   -2.251331e+001 1.577042e+001 0.000000e+000
      vertex   -2.662221e+001 1.284634e+001 0.000000e+000
      vertex   -2.958215e+001 1.842789e+001 0.000000e+000
    endloop
  endfacet
  facet normal -0.000000e+000 -0.000000e+000 -1.000000e+000
    outer loop
      vertex   -2.516485e+001 2.077042e+001 0.000000e+000
      vertex   -2.251331e+001 1.577042e+001 0.000000e+000
      vertex   -2.958215e+001 1.842789e+001 0.000000e+000
    endloop
  endfacet
  facet normal 0.000000e+000 0.000000e+000 -1.000000e+000
    outer loop
      vertex   -4.000000e+000 9.860761e-031 0.000000e+000
      vertex   -2.261968e+001 8.544726e+000 0.000000e+000
      vertex   -1.600000e+001 8.770418e+000 0.000000e+000
    endloop
  endfacet
  facet normal -0.000000e+000 -0.000000e+000 -1.000000e+000
    outer loop
      vertex   -4.000000e+000 6.000000e+000 0.000000e+000
      vertex   -4.000000e+000 9.860761e-031 0.000000e+000
      vertex   -1.600000e+001 8.770418e+000 0.000000e+000
    endloop
  endfacet
  facet normal 0.000000e+000 0.000000e+000 -1.000000e+000
    outer loop
      vertex   -1.600000e+001 8.770418e+000 0.000000e+000
      vertex   -2.662221e+001 1.284634e+001 0.000000e+000
      vertex   -2.251331e+001 1.577042e+001 0.000000e+000
    endloop
  endfacet
  facet normal 0.000000e+000 -0.000000e+000 -1.000000e+000
    outer loop
      vertex   4.000000e+000 6.000000e+000 0.000000e+000
      vertex   1.600000e+001 8.770418e+000 0.000000e+000
      vertex   4.000000e+000 0.000000e+000 0.000000e+000
    endloop
  endfacet
  facet normal 0.000000e+000 0.000000e+000 -1.000000e+000
    outer loop
      vertex   4.000000e+000 0.000000e+000 0.000000e+000
      vertex   1.600000e+001 8.770418e+000 0.000000e+000
      vertex   2.261968e+001 8.544726e+000 0.000000e+000
    endloop
  endfacet
  facet normal 0.000000e+000 0.000000e+000 -1.000000e+000
    outer loop
      vertex   2.261968e+001 8.544726e+000 0.000000e+000
      vertex   1.600000e+001 8.770418e+000 0.000000e+000
      vertex   2.662221e+001 1.284634e+001 0.000000e+000
    endloop
  endfacet
  facet normal -0.000000e+000 0.000000e+000 -1.000000e+000
    outer loop
      vertex   2.662221e+001 1.284634e+001 0.000000e+000
      vertex   1.600000e+001 8.770418e+000 0.000000e+000
      vertex   2.251331e+001 1.577042e+001 0.000000e+000
    endloop
  endfacet
  facet normal -0.000000e+000 0.000000e+000 -1.000000e+000
    outer loop
      vertex   2.958215e+001 1.842789e+001 0.000000e+000
      vertex   2.251331e+001 1.577042e+001 0.000000e+000
      vertex   2.516485e+001 2.077042e+001 0.000000e+000
    endloop
  endfacet
  facet normal -0.000000e+000 0.000000e+000 -1.000000e+000
    outer loop
      vertex   2.958215e+001 1.842789e+001 0.000000e+000
      vertex   2.662221e+001 1.284634e+001 0.000000e+000
      vertex   2.251331e+001 1.577042e+001 0.000000e+000
    endloop
  endfacet
  facet normal -7.071068e-001 -7.071068e-001 0.000000e+000
    outer loop
      vertex   -2.191257e+001 4.302085e+000 2.500000e+000
      vertex   -2.191257e+001 4.302085e+000 5.000000e+000
      vertex   -2.368034e+001 6.069852e+000 2.500000e+000
    endloop
  endfacet
  facet normal -7.071068e-001 -7.071068e-001 0.000000e+000
    outer loop
      vertex   -2.368034e+001 6.069852e+000 2.500000e+000
      vertex   -2.191257e+001 4.302085e+000 5.000000e+000
      vertex   -2.368034e+001 6.069852e+000 5.000000e+000
    endloop
  endfacet
  facet normal 7.071068e-001 -7.071068e-001 0.000000e+000
    outer loop
      vertex   -2.368034e+001 6.069852e+000 2.500000e+000
      vertex   -2.368034e+001 6.069852e+000 5.000000e+000
      vertex   -3.075141e+001 -1.001215e+000 2.500000e+000
    endloop
  endfacet
  facet normal 7.071068e-001 -7.071068e-001 0.000000e+000
    outer loop
      vertex   -3.075141e+001 -1.001215e+000 2.500000e+000
      vertex   -2.368034e+001 6.069852e+000 5.000000e+000
      vertex   -3.075141e+001 -1.001215e+000 5.000000e+000
    endloop
  endfacet
  facet normal 7.071068e-001 7.071068e-001 -0.000000e+000
    outer loop
      vertex   -3.075141e+001 -1.001215e+000 2.500000e+000
      vertex   -3.075141e+001 -1.001215e+000 5.000000e+000
      vertex   -2.898364e+001 -2.768982e+000 2.500000e+000
    endloop
  endfacet
  facet normal 7.071068e-001 7.071068e-001 0.000000e+000
    outer loop
      vertex   -2.898364e+001 -2.768982e+000 2.500000e+000
      vertex   -3.075141e+001 -1.001215e+000 5.000000e+000
      vertex   -2.898364e+001 -2.768982e+000 5.000000e+000
    endloop
  endfacet
  facet normal -7.071068e-001 7.071068e-001 0.000000e+000
    outer loop
      vertex   -2.898364e+001 -2.768982e+000 2.500000e+000
      vertex   -2.898364e+001 -2.768982e+000 5.000000e+000
      vertex   -2.191257e+001 4.302085e+000 2.500000e+000
    endloop
  endfacet
  facet normal -7.071068e-001 7.071068e-001 0.000000e+000
    outer loop
      vertex   -2.191257e+001 4.302085e+000 2.500000e+000
      vertex   -2.898364e+001 -2.768982e+000 5.000000e+000
      vertex   -2.191257e+001 4.302085e+000 5.000000e+000
    endloop
  endfacet
  facet normal -0.000000e+000 0.000000e+000 1.000000e+000
    outer loop
      vertex   -2.368034e+001 6.069852e+000 2.500000e+000
      vertex   -3.075141e+001 -1.001215e+000 2.500000e+000
      vertex   -2.191257e+001 4.302085e+000 2.500000e+000
    endloop
  endfacet
  facet normal 0.000000e+000 0.000000e+000 1.000000e+000
    outer loop
      vertex   -2.191257e+001 4.302085e+000 2.500000e+000
      vertex   -3.075141e+001 -1.001215e+000 2.500000e+000
      vertex   -2.898364e+001 -2.768982e+000 2.500000e+000
    endloop
  endfacet
  facet normal -0.000000e+000 -1.000000e+000 0.000000e+000
    outer loop
      vertex   3.676181e+001 -5.597410e+000 0.000000e+000
      vertex   3.676181e+001 -5.597410e+000 5.000000e+000
      vertex   -3.676181e+001 -5.597410e+000 0.000000e+000
    endloop
  endfacet
  facet normal 0.000000e+000 -1.000000e+000 0.000000e+000
    outer loop
      vertex   -3.676181e+001 -5.597410e+000 0.000000e+000
      vertex   3.676181e+001 -5.597410e+000 5.000000e+000
      vertex   -3.676181e+001 -5.597410e+000 5.000000e+000
    endloop
  endfacet
  facet normal -7.071068e-001 7.071068e-001 0.000000e+000
    outer loop
      vertex   -3.676181e+001 -5.597410e+000 0.000000e+000
      vertex   -3.676181e+001 -5.597410e+000 5.000000e+000
      vertex   -2.261968e+001 8.544726e+000 0.000000e+000
    endloop
  endfacet
  facet normal -7.071068e-001 7.071068e-001 0.000000e+000
    outer loop
      vertex   -2.261968e+001 8.544726e+000 0.000000e+000
      vertex   -3.676181e+001 -5.597410e+000 5.000000e+000
      vertex   -2.261968e+001 8.544726e+000 5.000000e+000
    endloop
  endfacet
  facet normal 1.000000e+000 -0.000000e+000 0.000000e+000
    outer loop
      vertex   -4.000000e+000 9.860761e-031 5.000000e+000
      vertex   -4.000000e+000 9.860761e-031 0.000000e+000
      vertex   -4.000000e+000 6.000000e+000 5.000000e+000
    endloop
  endfacet
  facet normal 1.000000e+000 -0.000000e+000 0.000000e+000
    outer loop
      vertex   -4.000000e+000 6.000000e+000 5.000000e+000
      vertex   -4.000000e+000 9.860761e-031 0.000000e+000
      vertex   -4.000000e+000 6.000000e+000 0.000000e+000
    endloop
  endfacet
  facet normal 2.249511e-001 9.743701e-001 0.000000e+000
    outer loop
      vertex   -4.000000e+000 6.000000e+000 5.000000e+000
      vertex   -4.000000e+000 6.000000e+000 0.000000e+000
      vertex   -1.600000e+001 8.770418e+000 5.000000e+000
    endloop
  endfacet
  facet normal 2.249511e-001 9.743701e-001 0.000000e+000
    outer loop
      vertex   -1.600000e+001 8.770418e+000 5.000000e+000
      vertex   -4.000000e+000 6.000000e+000 0.000000e+000
      vertex   -1.600000e+001 8.770418e+000 0.000000e+000
    endloop
  endfacet
  facet normal 7.320989e-001 6.811984e-001 0.000000e+000
    outer loop
      vertex   -1.600000e+001 8.770418e+000 5.000000e+000
      vertex   -1.600000e+001 8.770418e+000 0.000000e+000
      vertex   -2.251331e+001 1.577042e+001 5.000000e+000
    endloop
  endfacet
  facet normal 7.320989e-001 6.811984e-001 0.000000e+000
    outer loop
      vertex   -2.251331e+001 1.577042e+001 5.000000e+000
      vertex   -1.600000e+001 8.770418e+000 0.000000e+000
      vertex   -2.251331e+001 1.577042e+001 0.000000e+000
    endloop
  endfacet
  facet normal 8.834603e-001 4.685060e-001 0.000000e+000
    outer loop
      vertex   -2.251331e+001 1.577042e+001 5.000000e+000
      vertex   -2.251331e+001 1.577042e+001 0.000000e+000
      vertex   -2.516485e+001 2.077042e+001 5.000000e+000
    endloop
  endfacet
  facet normal 8.834603e-001 4.685060e-001 0.000000e+000
    outer loop
      vertex   -2.516485e+001 2.077042e+001 5.000000e+000
      vertex   -2.251331e+001 1.577042e+001 0.000000e+000
      vertex   -2.516485e+001 2.077042e+001 0.000000e+000
    endloop
  endfacet
  facet normal -4.685060e-001 8.834603e-001 0.000000e+000
    outer loop
      vertex   -2.516485e+001 2.077042e+001 5.000000e+000
      vertex   -2.516485e+001 2.077042e+001 0.000000e+000
      vertex   -2.958215e+001 1.842789e+001 5.000000e+000
    endloop
  endfacet
  facet normal -4.685060e-001 8.834603e-001 0.000000e+000
    outer loop
      vertex   -2.958215e+001 1.842789e+001 5.000000e+000
      vertex   -2.516485e+001 2.077042e+001 0.000000e+000
      vertex   -2.958215e+001 1.842789e+001 0.000000e+000
    endloop
  endfacet
  facet normal -8.834603e-001 -4.685060e-001 -0.000000e+000
    outer loop
      vertex   -2.958215e+001 1.842789e+001 5.000000e+000
      vertex   -2.958215e+001 1.842789e+001 0.000000e+000
      vertex   -2.662221e+001 1.284634e+001 5.000000e+000
    endloop
  endfacet
  facet normal -8.834603e-001 -4.685060e-001 0.000000e+000
    outer loop
      vertex   -2.662221e+001 1.284634e+001 5.000000e+000
      vertex   -2.958215e+001 1.842789e+001 0.000000e+000
      vertex   -2.662221e+001 1.284634e+001 0.000000e+000
    endloop
  endfacet
  facet normal -7.320989e-001 -6.811984e-001 0.000000e+000
    outer loop
      vertex   -2.261968e+001 8.544726e+000 0.000000e+000
      vertex   -2.261968e+001 8.544726e+000 5.000000e+000
      vertex   -2.662221e+001 1.284634e+001 0.000000e+000
    endloop
  endfacet
  facet normal -7.320989e-001 -6.811984e-001 0.000000e+000
    outer loop
      vertex   -2.662221e+001 1.284634e+001 0.000000e+000
      vertex   -2.261968e+001 8.544726e+000 5.000000e+000
      vertex   -2.662221e+001 1.284634e+001 5.000000e+000
    endloop
  endfacet
  facet normal -1.000000e+000 -0.000000e+000 -0.000000e+000
    outer loop
      vertex   4.000000e+000 6.000000e+000 5.000000e+000
      vertex   4.000000e+000 6.000000e+000 0.000000e+000
      vertex   4.000000e+000 0.000000e+000 5.000000e+000
    endloop
  endfacet
  facet normal -1.000000e+000 -0.000000e+000 -0.000000e+000
    outer loop
      vertex   4.000000e+000 0.000000e+000 5.000000e+000
      vertex   4.000000e+000 6.000000e+000 0.000000e+000
      vertex   4.000000e+000 0.000000e+000 0.000000e+000
    endloop
  endfacet
  facet normal -2.249511e-001 9.743701e-001 0.000000e+000
    outer loop
      vertex   1.600000e+001 8.770418e+000 5.000000e+000
      vertex   1.600000e+001 8.770418e+000 0.000000e+000
      vertex   4.000000e+000 6.000000e+000 5.000000e+000
    endloop
  endfacet
  facet normal -2.249511e-001 9.743701e-001 0.000000e+000
    outer loop
      vertex   4.000000e+000 6.000000e+000 5.000000e+000
      vertex   1.600000e+001 8.770418e+000 0.000000e+000
      vertex   4.000000e+000 6.000000e+000 0.000000e+000
    endloop
  endfacet
  facet normal -7.320989e-001 6.811984e-001 0.000000e+000
    outer loop
      vertex   2.251331e+001 1.577042e+001 5.000000e+000
      vertex   2.251331e+001 1.577042e+001 0.000000e+000
      vertex   1.600000e+001 8.770418e+000 5.000000e+000
    endloop
  endfacet
  facet normal -7.320989e-001 6.811984e-001 0.000000e+000
    outer loop
      vertex   1.600000e+001 8.770418e+000 5.000000e+000
      vertex   2.251331e+001 1.577042e+001 0.000000e+000
      vertex   1.600000e+001 8.770418e+000 0.000000e+000
    endloop
  endfacet
  facet normal -8.834603e-001 4.685060e-001 0.000000e+000
    outer loop
      vertex   2.516485e+001 2.077042e+001 5.000000e+000
      vertex   2.516485e+001 2.077042e+001 0.000000e+000
      vertex   2.251331e+001 1.577042e+001 5.000000e+000
    endloop
  endfacet
  facet normal -8.834603e-001 4.685060e-001 0.000000e+000
    outer loop
      vertex   2.251331e+001 1.577042e+001 5.000000e+000
      vertex   2.516485e+001 2.077042e+001 0.000000e+000
      vertex   2.251331e+001 1.577042e+001 0.000000e+000
    endloop
  endfacet
  facet normal 4.685060e-001 8.834603e-001 0.000000e+000
    outer loop
      vertex   2.958215e+001 1.842789e+001 5.000000e+000
      vertex   2.958215e+001 1.842789e+001 0.000000e+000
      vertex   2.516485e+001 2.077042e+001 5.000000e+000
    endloop
  endfacet
  facet normal 4.685060e-001 8.834603e-001 0.000000e+000
    outer loop
      vertex   2.516485e+001 2.077042e+001 5.000000e+000
      vertex   2.958215e+001 1.842789e+001 0.000000e+000
      vertex   2.516485e+001 2.077042e+001 0.000000e+000
    endloop
  endfacet
  facet normal 8.834603e-001 -4.685060e-001 0.000000e+000
    outer loop
      vertex   2.662221e+001 1.284634e+001 5.000000e+000
      vertex   2.662221e+001 1.284634e+001 0.000000e+000
      vertex   2.958215e+001 1.842789e+001 5.000000e+000
    endloop
  endfacet
  facet normal 8.834603e-001 -4.685060e-001 0.000000e+000
    outer loop
      vertex   2.958215e+001 1.842789e+001 5.000000e+000
      vertex   2.662221e+001 1.284634e+001 0.000000e+000
      vertex   2.958215e+001 1.842789e+001 0.000000e+000
    endloop
  endfacet
  facet normal 1.232595e-031 1.000000e+000 0.000000e+000
    outer loop
      vertex   4.000000e+000 0.000000e+000 5.000000e+000
      vertex   4.000000e+000 0.000000e+000 0.000000e+000
      vertex   -4.000000e+000 9.860761e-031 5.000000e+000
    endloop
  endfacet
  facet normal 1.232595e-031 1.000000e+000 0.000000e+000
    outer loop
      vertex   -4.000000e+000 9.860761e-031 5.000000e+000
      vertex   4.000000e+000 0.000000e+000 0.000000e+000
      vertex   -4.000000e+000 9.860761e-031 0.000000e+000
    endloop
  endfacet
  facet normal 0.000000e+000 0.000000e+000 1.000000e+000
    outer loop
      vertex   2.368034e+001 6.069852e+000 5.000000e+000
      vertex   1.600000e+001 8.770418e+000 5.000000e+000
      vertex   2.191257e+001 4.302085e+000 5.000000e+000
    endloop
  endfacet
  facet normal 0.000000e+000 0.000000e+000 1.000000e+000
    outer loop
      vertex   2.368034e+001 6.069852e+000 5.000000e+000
      vertex   2.261968e+001 8.544726e+000 5.000000e+000
      vertex   1.600000e+001 8.770418e+000 5.000000e+000
    endloop
  endfacet
  facet normal -0.000000e+000 -0.000000e+000 1.000000e+000
    outer loop
      vertex   2.368034e+001 6.069852e+000 5.000000e+000
      vertex   3.075141e+001 -1.001215e+000 5.000000e+000
      vertex   2.261968e+001 8.544726e+000 5.000000e+000
    endloop
  endfacet
  facet normal 0.000000e+000 0.000000e+000 1.000000e+000
    outer loop
      vertex   2.261968e+001 8.544726e+000 5.000000e+000
      vertex   3.075141e+001 -1.001215e+000 5.000000e+000
      vertex   3.676181e+001 -5.597410e+000 5.000000e+000
    endloop
  endfacet
  facet normal 0.000000e+000 0.000000e+000 1.000000e+000
    outer loop
      vertex   3.676181e+001 -5.597410e+000 5.000000e+000
      vertex   3.075141e+001 -1.001215e+000 5.000000e+000
      vertex   2.898364e+001 -2.768982e+000 5.000000e+000
    endloop
  endfacet
  facet normal -0.000000e+000 -0.000000e+000 1.000000e+000
    outer loop
      vertex   4.000000e+000 0.000000e+000 5.000000e+000
      vertex   2.898364e+001 -2.768982e+000 5.000000e+000
      vertex   2.191257e+001 4.302085e+000 5.000000e+000
    endloop
  endfacet
  facet normal -0.000000e+000 -0.000000e+000 1.000000e+000
    outer loop
      vertex   4.000000e+000 6.000000e+000 5.000000e+000
      vertex   2.191257e+001 4.302085e+000 5.000000e+000
      vertex   1.600000e+001 8.770418e+000 5.000000e+000
    endloop
  endfacet
  facet normal -0.000000e+000 0.000000e+000 1.000000e+000
    outer loop
      vertex   4.000000e+000 6.000000e+000 5.000000e+000
      vertex   4.000000e+000 0.000000e+000 5.000000e+000
      vertex   2.191257e+001 4.302085e+000 5.000000e+000
    endloop
  endfacet
  facet normal 0.000000e+000 0.000000e+000 1.000000e+000
    outer loop
      vertex   3.676181e+001 -5.597410e+000 5.000000e+000
      vertex   2.898364e+001 -2.768982e+000 5.000000e+000
      vertex   4.000000e+000 0.000000e+000 5.000000e+000
    endloop
  endfacet
  facet normal -0.000000e+000 -0.000000e+000 1.000000e+000
    outer loop
      vertex   -4.000000e+000 9.860761e-031 5.000000e+000
      vertex   3.676181e+001 -5.597410e+000 5.000000e+000
      vertex   4.000000e+000 0.000000e+000 5.000000e+000
    endloop
  endfacet
  facet normal -0.000000e+000 0.000000e+000 1.000000e+000
    outer loop
      vertex   -4.000000e+000 9.860761e-031 5.000000e+000
      vertex   -3.676181e+001 -5.597410e+000 5.000000e+000
      vertex   3.676181e+001 -5.597410e+000 5.000000e+000
    endloop
  endfacet
  facet normal 0.000000e+000 0.000000e+000 1.000000e+000
    outer loop
      vertex   -4.000000e+000 9.860761e-031 5.000000e+000
      vertex   -2.898364e+001 -2.768982e+000 5.000000e+000
      vertex   -3.676181e+001 -5.597410e+000 5.000000e+000
    endloop
  endfacet
  facet normal 0.000000e+000 0.000000e+000 1.000000e+000
    outer loop
      vertex   -4.000000e+000 9.860761e-031 5.000000e+000
      vertex   -2.191257e+001 4.302085e+000 5.000000e+000
      vertex   -2.898364e+001 -2.768982e+000 5.000000e+000
    endloop
  endfacet
  facet normal 0.000000e+000 -0.000000e+000 1.000000e+000
    outer loop
      vertex   -4.000000e+000 9.860761e-031 5.000000e+000
      vertex   -4.000000e+000 6.000000e+000 5.000000e+000
      vertex   -2.191257e+001 4.302085e+000 5.000000e+000
    endloop
  endfacet
  facet normal 0.000000e+000 -0.000000e+000 1.000000e+000
    outer loop
      vertex   -2.191257e+001 4.302085e+000 5.000000e+000
      vertex   -4.000000e+000 6.000000e+000 5.000000e+000
      vertex   -1.600000e+001 8.770418e+000 5.000000e+000
    endloop
  endfacet
  facet normal 0.000000e+000 -0.000000e+000 1.000000e+000
    outer loop
      vertex   -2.368034e+001 6.069852e+000 5.000000e+000
      vertex   -1.600000e+001 8.770418e+000 5.000000e+000
      vertex   -2.261968e+001 8.544726e+000 5.000000e+000
    endloop
  endfacet
  facet normal 0.000000e+000 -0.000000e+000 1.000000e+000
    outer loop
      vertex   -3.075141e+001 -1.001215e+000 5.000000e+000
      vertex   -2.261968e+001 8.544726e+000 5.000000e+000
      vertex   -3.676181e+001 -5.597410e+000 5.000000e+000
    endloop
  endfacet
  facet normal 0.000000e+000 0.000000e+000 1.000000e+000
    outer loop
      vertex   -2.898364e+001 -2.768982e+000 5.000000e+000
      vertex   -3.075141e+001 -1.001215e+000 5.000000e+000
      vertex   -3.676181e+001 -5.597410e+000 5.000000e+000
    endloop
  endfacet
  facet normal 0.000000e+000 -0.000000e+000 1.000000e+000
    outer loop
      vertex   2.261968e+001 8.544726e+000 5.000000e+000
      vertex   2.662221e+001 1.284634e+001 5.000000e+000
      vertex   1.600000e+001 8.770418e+000 5.000000e+000
    endloop
  endfacet
  facet normal 0.000000e+000 -0.000000e+000 1.000000e+000
    outer loop
      vertex   1.600000e+001 8.770418e+000 5.000000e+000
      vertex   2.662221e+001 1.284634e+001 5.000000e+000
      vertex   2.251331e+001 1.577042e+001 5.000000e+000
    endloop
  endfacet
  facet normal -0.000000e+000 0.000000e+000 1.000000e+000
    outer loop
      vertex   2.251331e+001 1.577042e+001 5.000000e+000
      vertex   2.662221e+001 1.284634e+001 5.000000e+000
      vertex   2.958215e+001 1.842789e+001 5.000000e+000
    endloop
  endfacet
  facet normal -0.000000e+000 0.000000e+000 1.000000e+000
    outer loop
      vertex   2.516485e+001 2.077042e+001 5.000000e+000
      vertex   2.251331e+001 1.577042e+001 5.000000e+000
      vertex   2.958215e+001 1.842789e+001 5.000000e+000
    endloop
  endfacet
  facet normal 0.000000e+000 -0.000000e+000 1.000000e+000
    outer loop
      vertex   -2.261968e+001 8.544726e+000 5.000000e+000
      vertex   -1.600000e+001 8.770418e+000 5.000000e+000
      vertex   -2.662221e+001 1.284634e+001 5.000000e+000
    endloop
  endfacet
  facet normal -0.000000e+000 -0.000000e+000 1.000000e+000
    outer loop
      vertex   -2.662221e+001 1.284634e+001 5.000000e+000
      vertex   -1.600000e+001 8.770418e+000 5.000000e+000
      vertex   -2.251331e+001 1.577042e+001 5.000000e+000
    endloop
  endfacet
  facet normal -0.000000e+000 -0.000000e+000 1.000000e+000
    outer loop
      vertex   -2.958215e+001 1.842789e+001 5.000000e+000
      vertex   -2.251331e+001 1.577042e+001 5.000000e+000
      vertex   -2.516485e+001 2.077042e+001 5.000000e+000
    endloop
  endfacet
  facet normal -0.000000e+000 0.000000e+000 1.000000e+000
    outer loop
      vertex   -2.958215e+001 1.842789e+001 5.000000e+000
      vertex   -2.662221e+001 1.284634e+001 5.000000e+000
      vertex   -2.251331e+001 1.577042e+001 5.000000e+000
    endloop
  endfacet
  facet normal 0.000000e+000 -0.000000e+000 1.000000e+000
    outer loop
      vertex   -2.368034e+001 6.069852e+000 5.000000e+000
      vertex   -2.261968e+001 8.544726e+000 5.000000e+000
      vertex   -3.075141e+001 -1.001215e+000 5.000000e+000
    endloop
  endfacet
  facet normal -0.000000e+000 0.000000e+000 1.000000e+000
    outer loop
      vertex   -2.368034e+001 6.069852e+000 5.000000e+000
      vertex   -2.191257e+001 4.302085e+000 5.000000e+000
      vertex   -1.600000e+001 8.770418e+000 5.000000e+000
    endloop
  endfacet
endsolid
